# Blender v2.79 (sub 0) OBJ File: 'pilar.blend'
# www.blender.org
mtllib pilar.mtl
o Circle
v 0.500000 0.000000 0.000000
v 0.250000 0.000000 -0.500001
v -0.250000 0.000000 -0.500001
v -0.500000 0.000000 0.000000
v -0.250000 0.000000 0.500001
v 0.250000 0.000000 0.500001
v 0.250000 -5.000000 -0.500001
v 0.500000 -5.000000 0.000000
v -0.250000 -5.000000 -0.500001
v -0.500000 -5.000000 0.000000
v -0.250000 -5.000000 0.500001
v 0.250000 -5.000000 0.500001
vt 0.647420 0.350276
vt 0.647420 0.250301
vt 0.747395 0.200313
vt 0.847371 0.250301
vt 0.847371 0.350276
vt 0.747395 0.400264
vt 0.647420 0.050108
vt 0.747395 0.000120
vt 0.847371 0.050108
vt 0.847371 0.150084
vt 0.747395 0.200072
vt 0.647420 0.150084
vt 0.423626 0.999879
vt 0.423625 0.000120
vt 0.535402 0.000120
vt 0.535402 0.999879
vt 0.211875 0.999879
vt 0.211873 0.000121
vt 0.323649 0.000120
vt 0.323651 0.999879
vt 0.000124 0.999880
vt 0.000120 0.000121
vt 0.100096 0.000121
vt 0.100099 0.999879
vt 0.647179 0.000120
vt 0.647178 0.999879
vn 0.0000 1.0000 0.0000
vn 0.0000 -1.0000 0.0000
vn 0.8944 0.0000 0.4472
vn -0.8944 0.0000 0.4472
vn -0.0000 0.0000 -1.0000
vn 0.0000 0.0000 1.0000
vn -0.8944 0.0000 -0.4472
vn 0.8944 0.0000 -0.4472
usemtl None
s off
f 2/1/1 3/2/1 4/3/1 5/4/1 6/5/1 1/6/1
f 7/7/2 8/8/2 12/9/2 11/10/2 10/11/2 9/12/2
f 6/13/3 12/14/3 8/15/3 1/16/3
f 4/17/4 10/18/4 11/19/4 5/20/4
f 2/21/5 7/22/5 9/23/5 3/24/5
f 5/20/6 11/19/6 12/14/6 6/13/6
f 3/24/7 9/23/7 10/18/7 4/17/7
f 1/16/8 8/15/8 7/25/8 2/26/8
